<?xml version="1.0" encoding="utf-8"?>
<!-- Generator: Adobe Illustrator 18.0.0, SVG Export Plug-In . SVG Version: 6.00 Build 0)  -->
<!DOCTYPE svg PUBLIC "-//W3C//DTD SVG 1.1//EN" "http://www.w3.org/Graphics/SVG/1.1/DTD/svg11.dtd">
<svg version="1.1" id="Layer_1" xmlns="http://www.w3.org/2000/svg" xmlns:xlink="http://www.w3.org/1999/xlink" x="0px" y="0px"
	 viewBox="0 0 234.5 207" enable-background="new 0 0 234.5 207" xml:space="preserve">
<path display="none" fill="#333333" stroke="#00A99D" stroke-width="4.8823" stroke-miterlimit="10" d="M192.4,199.9h-150
	c-18.8,0-34.1-15.3-34.1-34.1V43.6c0-18.8,15.3-34.1,34.1-34.1h150c18.8,0,34.1,15.3,34.1,34.1v122.2
	C226.5,184.6,211.2,199.9,192.4,199.9z"/>
<g>
	<path fill="#00A99D" d="M69.6,191.1c-13.8,0-34-2.5-34-24.6c0-13.6,1.5-27.6,1.5-39.6c0-6.5-0.6-15.4-20.8-16.6v-5.8
		c20.3-1.3,20.8-9.8,20.8-16.5c0-12.6-1.5-27-1.5-38.7c0-22.9,20-25.5,34-25.5v5.8c-17.2,1.8-19.4,9.7-19.4,17.8
		c0,12,2.9,25.4,2.9,37.5c0,10.5-5.2,19.6-19.4,22.1v0.8c14,2.5,19.4,11.6,19.4,22.1c0,12.6-2.9,25.4-2.9,37
		c0,8.8,2.2,16.5,19.4,18.4V191.1z"/>
	<path fill="#00A99D" d="M217.8,110.2c-20.3,1.3-21.1,10.3-21.1,17.4c0,11.3,1.7,25.1,1.7,39c0,21.3-19.8,24.5-34.2,24.5v-5.8
		c16.6-2,19.7-9.3,19.7-17.9c0-11.6-2.9-24.7-2.9-37.2c0-10.7,5.2-19.6,19.4-22.5V107c-14-2.6-19.4-11.8-19.4-22.1
		c0-12.3,2.9-25.6,2.9-37.8c0-8.6-3.1-15.8-19.7-17.5v-5.8c14.6,0,34.2,2.2,34.2,24.6c0,13.9-1.7,27.3-1.7,38.9
		c0,7.1,0.5,16.2,21.1,17.3V110.2z"/>
</g>
<g display="none" opacity="0.71">
	<path display="inline" fill="#00A99D" d="M71.1,39.6l47,24.7l47-24.7l0.3,67.7h-94L71.1,39.6z"/>
</g>
<g>
	<path fill="#00A99D" d="M74.5,145.9h5.3l-4.7,7.2l6.1,7.8H76l-6.1-7.8l3-4.6L74.5,145.9z"/>
	<path fill="#00A99D" d="M94,159.4c0,0.5-0.2,0.8-0.6,1.1c-0.4,0.3-0.8,0.4-1.4,0.4h-9.5v-14.7H92c0.6,0,1,0.1,1.4,0.4
		c0.4,0.3,0.6,0.7,0.6,1.1V159.4z M88.9,158.5v-9.8c0-0.4-0.2-0.5-0.5-0.5h-0.9v10.9h0.9C88.8,159.1,88.9,158.9,88.9,158.5z"/>
	<path fill="#00A99D" d="M107.6,159.4c0,0.5-0.2,0.8-0.6,1.1s-0.8,0.4-1.4,0.4h-7.7c-0.5,0-0.9-0.2-1.3-0.5
		c-0.4-0.3-0.6-0.7-0.6-1.1v-8.1c0-0.4,0.2-0.7,0.6-1.1c0.4-0.3,0.8-0.5,1.3-0.5h7.7c0.5,0,1,0.1,1.4,0.4s0.6,0.7,0.6,1.1v4.9h-6.4
		v2.2c0,0.2,0.1,0.4,0.2,0.4c0.1,0,0.3,0.1,0.6,0.1c0.3,0,0.5-0.2,0.5-0.5v-1.2h5V159.4z M102.6,154.4v-2.1c0-0.4-0.2-0.6-0.5-0.6
		c-0.3,0-0.5,0-0.6,0.1c-0.2,0.1-0.2,0.2-0.2,0.4v2.2H102.6z"/>
	<path fill="#00A99D" d="M121.2,159.4c0,0.4-0.2,0.7-0.6,1.1c-0.4,0.3-0.8,0.5-1.3,0.5h-7.7c-0.5,0-1-0.2-1.4-0.5
		c-0.4-0.3-0.6-0.7-0.6-1.1v-2.1h5.1v1.2c0,0.4,0.2,0.6,0.5,0.6c0.3,0,0.5,0,0.6-0.1c0.2-0.1,0.2-0.2,0.2-0.4v-1.7
		c0-0.2-0.1-0.4-0.2-0.4c-0.3-0.1-1.2-0.3-2.8-0.6c-1.4-0.2-2.4-0.5-2.8-0.9c-0.4-0.3-0.6-0.7-0.6-1.1v-2.5c0-0.4,0.2-0.7,0.6-1.1
		c0.4-0.3,0.8-0.5,1.3-0.5h7.7c0.6,0,1,0.1,1.4,0.4c0.4,0.3,0.6,0.7,0.6,1.1v2.1h-5v-1.2c0-0.4-0.2-0.6-0.5-0.6
		c-0.3,0-0.5,0-0.6,0.1c-0.2,0.1-0.2,0.2-0.2,0.4v1.7c0,0.2,0.1,0.4,0.2,0.4c0.2,0.1,1.2,0.3,2.8,0.6c1.5,0.3,2.4,0.6,2.8,0.9
		c0.4,0.3,0.6,0.7,0.6,1.1V159.4z"/>
	<path fill="#00A99D" d="M128.3,147.3c0,0.6-0.3,1.1-0.8,1.5c-0.5,0.4-1.1,0.6-1.8,0.6s-1.3-0.2-1.8-0.6c-0.5-0.4-0.7-0.9-0.7-1.5
		c0-0.6,0.2-1.1,0.7-1.5s1.1-0.6,1.8-0.6s1.3,0.2,1.8,0.6S128.3,146.8,128.3,147.3z M128.3,161h-5.1v-11.1h5.1V161z"/>
	<path fill="#00A99D" d="M142,164.2c0,0.4-0.2,0.8-0.6,1.1c-0.4,0.3-0.8,0.5-1.4,0.5h-7.7c-0.5,0-0.9-0.2-1.3-0.5
		c-0.4-0.3-0.6-0.7-0.6-1.1v-2.1h5.1v1.2c0,0.4,0.2,0.6,0.5,0.6c0.3,0,0.5,0,0.6-0.1c0.2-0.1,0.2-0.2,0.2-0.4V161h-4.6
		c-0.5,0-0.9-0.2-1.3-0.5c-0.4-0.3-0.6-0.7-0.6-1.1v-8.1c0-0.4,0.2-0.7,0.6-1.1c0.4-0.3,0.8-0.5,1.3-0.5h7.7c0.6,0,1,0.1,1.4,0.4
		s0.6,0.7,0.6,1.1V164.2z M136.9,158.5v-6.2c0-0.4-0.2-0.6-0.5-0.6c-0.3,0-0.5,0-0.6,0.1c-0.2,0.1-0.2,0.2-0.2,0.4v6.3
		c0,0.2,0.1,0.4,0.2,0.4c0.1,0,0.3,0.1,0.6,0.1C136.8,159.1,136.9,158.9,136.9,158.5z"/>
	<path fill="#00A99D" d="M155.9,161h-5v-8.7c0-0.4-0.2-0.6-0.5-0.6c-0.3,0-0.5,0-0.6,0.1c-0.2,0.1-0.2,0.2-0.2,0.4v8.7h-5.1v-9.6
		c0-0.4,0.2-0.7,0.6-1.1c0.4-0.3,0.8-0.5,1.3-0.5h7.7c0.6,0,1,0.1,1.4,0.4s0.6,0.7,0.6,1.1V161z"/>
	<path fill="#00A99D" d="M165,161h-5.3l4.7-7.2l-6.1-7.8h5.2l6.1,7.8l-3,4.6L165,161z"/>
</g>
<g>
	<path fill="#00A99D" d="M131.1,131.3c-1.1,1.8-3,2.7-5.6,2.6c-0.8,0.1-1.6-0.1-2.4-0.6c-0.7-0.4-1.4-0.9-2.1-1.3
		c-2,0.8-3.1,1.2-3.3,1.2c-1.3,0.4-2.4,0.6-3.5,0.6c-0.8,0-1.6-0.1-2.4-0.4c-1.3-0.7-2-1.1-2.1-1.1c-0.8-0.5-1.4-1-1.8-1.5
		c-0.4-1.9-0.6-2.9-0.6-3c0-0.7,0.2-1.3,0.6-1.7c1.3-1.3,2-2.1,2.1-2.1c0.8-0.7,1.7-1.2,2.6-1.3c0-0.7-0.2-1.6-0.6-2.8
		c-0.4-1.2-0.6-2.1-0.6-2.8c0.9-2.1,2.2-3.4,4-3.7c0.6-0.2,1.3-0.3,1.9-0.3c1.8,0,3.5,0.7,5.1,2.2c0.3,0.9,0.4,1.6,0.4,2
		c0,0.6-0.2,1.2-0.7,1.6c-0.2,0.6-1,1.1-2.4,1.7s-2,1-2,1.5c0,0.4,0.3,0.8,0.8,1.3c0.4,0.2,1.2,1,2.2,2.4c0.8,1,1.7,1.5,2.8,1.5
		c0.7-0.9,1.1-1.5,1.1-2c0-0.3-0.1-0.5-0.2-0.8c0.1-0.5-0.3-0.9-1-1.2c-0.7-0.3-1.1-0.6-1.1-0.9c0-0.2,0.1-0.5,0.4-0.8l7.8-0.3
		c0.5,0.4,0.7,0.7,0.7,0.9c0,0.1,0,0.2-0.1,0.4c-1.7,0.6-2.9,1.1-3.6,1.6c-1.2,0.8-2,1.7-2.4,2.8c-0.8,0.5-1.2,1.2-1.3,2.1
		c1.1,1.3,2.2,2,3.2,2.2c0.2,0.1,0.4,0.1,0.6,0.1c0.2,0,0.6-0.1,1.2-0.2s0.9-0.2,1.2-0.2C130.4,131,130.8,131.1,131.1,131.3z
		 M119.3,130c-0.2-0.4-0.8-1.2-1.8-2.4c-0.8-1-1.3-1.8-1.5-2.5c-0.6-0.7-1.5-1.1-2.5-1.1c-0.9,0-1.4,0.4-1.6,1.3
		c-0.1,0.3-0.2,0.6-0.2,1c0,0.3,0.1,0.7,0.2,1.2c0.1,0.6,0.2,1,0.2,1.2c1.2,2,2.7,3,4.6,3C118.2,131.3,119.1,130.8,119.3,130z
		 M119.7,118.7c0.2-0.3,0.4-0.6,0.4-0.9s-0.2-0.8-0.5-1.3c-0.3-0.6-0.5-1-0.5-1.2c-0.4-0.1-0.8-0.2-1.2-0.2c-0.7,0-1.4,0.2-1.9,0.6
		s-0.8,0.8-0.8,1.4c0,0.3,0.1,0.5,0.2,0.8c0.4,0.2,0.7,0.6,0.9,1.4c0.2,0.7,0.6,1,1.1,1c0.2,0,0.3,0,0.6,0
		C118.3,120.1,118.9,119.6,119.7,118.7z"/>
</g>
<g display="none">
	<path display="inline" fill="#333333" d="M5.6,224.1v-15h8.9v1.2H8.5v5.6h3v1.2h-3v6.9H5.6z"/>
	<path display="inline" fill="#333333" d="M18.9,219c-0.1,0-0.3,0-0.4,0.1c-0.1,0-0.3,0-0.4,0v5h-3v-15h3c0.8,0,1.5,0.1,2.1,0.3
		c0.6,0.2,1.1,0.5,1.5,0.8c0.4,0.3,0.8,0.8,1,1.2c0.2,0.5,0.4,1,0.5,1.6c0.1,0.5,0,0.9,0,1.4c-0.1,0.5-0.2,0.9-0.5,1.4
		c-0.2,0.4-0.5,0.8-0.8,1.2c-0.3,0.4-0.7,0.7-1,1c0.3,0.1,0.6,0.3,0.9,0.6c0.3,0.3,0.6,0.7,0.9,1.3c0.1,0.2,0.2,0.5,0.3,0.9
		c0.1,0.4,0.3,0.8,0.5,1.2s0.5,0.7,0.8,1s0.8,0.4,1.4,0.4c-0.2,0.2-0.4,0.4-0.7,0.5c-0.3,0.1-0.7,0.2-1,0.2c-0.4,0-0.8-0.1-1.2-0.2
		c-0.4-0.1-0.8-0.4-1.2-0.7c-0.2-0.2-0.5-0.5-0.6-0.9c-0.2-0.4-0.4-0.8-0.5-1.2c-0.2-0.4-0.4-0.8-0.6-1.2
		C19.5,219.5,19.2,219.2,18.9,219z M18.1,217.8c0.7-1.2,1.2-2.2,1.3-3.1c0.2-0.9,0.2-1.6,0.1-2.2c-0.1-0.6-0.3-1.1-0.6-1.5
		c-0.3-0.4-0.5-0.6-0.8-0.7V217.8z"/>
	<path display="inline" fill="#333333" d="M26.5,217.9v-5c0-0.4,0.1-0.8,0.3-1.2c0.2-0.5,0.5-0.9,0.8-1.3s0.8-0.7,1.4-1
		c0.5-0.3,1.2-0.4,1.9-0.4c0.7,0,1.4,0.1,1.9,0.4c0.5,0.3,1,0.6,1.4,1c0.4,0.4,0.6,0.8,0.8,1.3c0.2,0.5,0.3,0.9,0.3,1.2v5v2.3
		c0,0.4-0.1,0.8-0.3,1.2c-0.2,0.4-0.5,0.9-0.8,1.3c-0.4,0.4-0.8,0.7-1.4,1c-0.5,0.3-1.2,0.4-1.9,0.4c-0.7,0-1.4-0.1-1.9-0.4
		c-0.5-0.3-1-0.6-1.4-1s-0.6-0.8-0.8-1.3c-0.2-0.4-0.3-0.9-0.3-1.2V217.9z M29.4,217.9v2c0,0.3,0,0.6,0.1,0.9c0,0.3,0.1,0.7,0.2,0.9
		c0.1,0.3,0.3,0.5,0.4,0.7c0.2,0.2,0.4,0.3,0.8,0.3c0.3,0,0.6-0.1,0.7-0.3c0.2-0.2,0.3-0.4,0.4-0.7c0.1-0.3,0.2-0.6,0.2-0.9
		c0-0.3,0.1-0.6,0.1-0.9v-2v-4.6c0-0.3,0-0.6-0.1-0.9c0-0.3-0.1-0.7-0.2-0.9c-0.1-0.3-0.3-0.5-0.4-0.7c-0.2-0.2-0.4-0.3-0.7-0.3
		c-0.3,0-0.6,0.1-0.8,0.3c-0.2,0.2-0.3,0.4-0.4,0.7c-0.1,0.3-0.2,0.6-0.2,0.9c0,0.3-0.1,0.6-0.1,0.9V217.9z"/>
	<path display="inline" fill="#333333" d="M36,224.1v-15h3l3.9,9.7v-9.7h3v15h-3l-3.9-9.7v9.7H36z"/>
	<path display="inline" fill="#333333" d="M49.6,224.1v-13.8h-3v-1.2h8.9v1.2h-3v13.8H49.6z"/>
	<path display="inline" fill="#333333" d="M61,217.4h-4.8v-1.2H61V217.4z"/>
	<path display="inline" fill="#333333" d="M62.9,224.1v-15h8.9v1.2h-5.9v5.6h3v1.2h-3v5.6h5.9v1.2H62.9z"/>
	<path display="inline" fill="#333333" d="M72.5,224.1v-15h3l3.9,9.7v-9.7h3v15h-3l-3.9-9.7v9.7H72.5z"/>
	<path display="inline" fill="#333333" d="M86,209.1c0.7,0,1.3,0.2,1.9,0.6c0.6,0.4,1.2,0.9,1.6,1.6c0.5,0.7,0.9,1.5,1.1,2.4
		c0.3,0.9,0.4,1.9,0.4,3c0,1.1-0.1,2.1-0.4,3s-0.6,1.7-1,2.4s-1,1.2-1.6,1.6c-0.6,0.4-1.4,0.6-2.2,0.6h-3v-15h1.6H86z M86,222.9
		c0.4-0.4,0.8-0.9,1.1-1.4c0.3-0.5,0.5-1.1,0.8-1.9c0.2-0.8,0.3-1.8,0.3-2.9c0-1.1-0.1-2.1-0.3-2.9c-0.2-0.8-0.5-1.4-0.8-1.9
		c-0.3-0.6-0.7-1.1-1.1-1.4V222.9z"/>
	<path display="inline" fill="#333333" d="M118.5,209.1l-4.4,15h-1.5l-3-10l-3,10h-1.5l-4.4-15h3l3,10l3-10h1.5l3,10l3-10H118.5z"/>
	<path display="inline" fill="#333333" d="M119.2,224.1v-15h8.9v1.2h-5.9v5.6h3v1.2h-3v5.6h5.9v1.2H119.2z"/>
	<path display="inline" fill="#333333" d="M135.7,216.8c0.5,0.3,0.9,0.6,1.3,1.1c0.4,0.5,0.6,1,0.6,1.8c0,0.7-0.1,1.3-0.3,1.8
		s-0.5,1-1,1.4s-1.1,0.7-1.8,0.9c-0.8,0.2-1.7,0.3-2.8,0.3h-3v-15h3c0.8,0,1.5,0.1,2.1,0.3c0.6,0.2,1.1,0.5,1.5,0.8
		c0.4,0.3,0.7,0.8,1,1.2c0.2,0.5,0.4,1,0.5,1.6c0.1,0.7,0,1.3-0.2,2C136.4,215.7,136.1,216.3,135.7,216.8z M131.7,216.1
		c0.5-0.3,0.9-0.6,1.1-1c0.2-0.4,0.4-0.8,0.4-1.2c0-0.4,0-0.8-0.1-1.2c-0.1-0.4-0.2-0.8-0.4-1.1c-0.2-0.3-0.3-0.6-0.5-0.8
		c-0.2-0.2-0.4-0.4-0.5-0.5V216.1z M131.8,222.9c0.4-0.1,0.8-0.2,1.1-0.3c0.3-0.2,0.5-0.4,0.8-0.7c0.2-0.3,0.4-0.7,0.5-1.3
		c0-0.2,0-0.5-0.1-0.8c-0.1-0.3-0.2-0.6-0.4-0.9s-0.5-0.6-0.8-0.8c-0.3-0.2-0.7-0.4-1.1-0.5L131.8,222.9z"/>
	<path display="inline" fill="#333333" d="M150.2,209.1c0.7,0,1.3,0.2,1.9,0.6c0.6,0.4,1.2,0.9,1.6,1.6c0.5,0.7,0.9,1.5,1.1,2.4
		c0.3,0.9,0.4,1.9,0.4,3c0,1.1-0.1,2.1-0.4,3c-0.2,0.9-0.6,1.7-1,2.4c-0.4,0.7-1,1.2-1.6,1.6c-0.6,0.4-1.4,0.6-2.2,0.6h-3v-15h1.6
		H150.2z M150.2,222.9c0.4-0.4,0.8-0.9,1.1-1.4c0.3-0.5,0.5-1.1,0.8-1.9c0.2-0.8,0.3-1.8,0.3-2.9c0-1.1-0.1-2.1-0.3-2.9
		c-0.2-0.8-0.5-1.4-0.8-1.9c-0.3-0.6-0.7-1.1-1.1-1.4V222.9z"/>
	<path display="inline" fill="#333333" d="M156.1,224.1v-15h8.9v1.2H159v5.6h3v1.2h-3v5.6h5.9v1.2H156.1z"/>
	<path display="inline" fill="#333333" d="M176,209.1l-4.4,15h-1.5l-4.4-15h3l3,10l3-10H176z"/>
	<path display="inline" fill="#333333" d="M176.7,224.1v-15h8.9v1.2h-5.9v5.6h3v1.2h-3v5.6h5.9v1.2H176.7z"/>
	<path display="inline" fill="#333333" d="M186.3,224.1v-15h3v13.8h5.9v1.2H186.3z"/>
	<path display="inline" fill="#333333" d="M195.9,217.9v-5c0-0.4,0.1-0.8,0.3-1.2c0.2-0.5,0.5-0.9,0.8-1.3c0.4-0.4,0.8-0.7,1.4-1
		c0.5-0.3,1.2-0.4,1.9-0.4c0.7,0,1.4,0.1,1.9,0.4c0.5,0.3,1,0.6,1.4,1c0.4,0.4,0.6,0.8,0.8,1.3c0.2,0.5,0.3,0.9,0.3,1.2v5v2.3
		c0,0.4-0.1,0.8-0.3,1.2c-0.2,0.4-0.5,0.9-0.8,1.3c-0.4,0.4-0.8,0.7-1.4,1c-0.6,0.3-1.2,0.4-1.9,0.4c-0.7,0-1.4-0.1-1.9-0.4
		c-0.5-0.3-1-0.6-1.4-1c-0.4-0.4-0.6-0.8-0.8-1.3c-0.2-0.4-0.3-0.9-0.3-1.2V217.9z M198.9,217.9v2c0,0.3,0,0.6,0.1,0.9
		c0,0.3,0.1,0.7,0.2,0.9c0.1,0.3,0.3,0.5,0.4,0.7c0.2,0.2,0.4,0.3,0.7,0.3c0.3,0,0.6-0.1,0.8-0.3c0.2-0.2,0.3-0.4,0.4-0.7
		c0.1-0.3,0.2-0.6,0.2-0.9c0-0.3,0.1-0.6,0.1-0.9v-2v-4.6c0-0.3,0-0.6-0.1-0.9c0-0.3-0.1-0.7-0.2-0.9c-0.1-0.3-0.3-0.5-0.4-0.7
		c-0.2-0.2-0.4-0.3-0.8-0.3c-0.3,0-0.6,0.1-0.7,0.3c-0.2,0.2-0.3,0.4-0.4,0.7c-0.1,0.3-0.2,0.6-0.2,0.9c0,0.3-0.1,0.6-0.1,0.9V217.9
		z"/>
	<path display="inline" fill="#333333" d="M208.5,224.1h-3v-15h3c0.8,0,1.5,0.1,2.1,0.3c0.6,0.2,1.1,0.5,1.5,0.8
		c0.4,0.3,0.7,0.8,1,1.2c0.2,0.5,0.4,1,0.5,1.6c0.1,0.7,0,1.5-0.3,2.2c-0.3,0.7-0.7,1.4-1.1,2c-0.5,0.6-1.1,1-1.7,1.4
		c-0.7,0.4-1.3,0.5-2,0.5V224.1z M208.5,217.8c0.7-1.2,1.2-2.2,1.3-3.1c0.2-0.9,0.2-1.6,0.1-2.2c-0.1-0.6-0.3-1.1-0.6-1.5
		c-0.3-0.4-0.6-0.6-0.8-0.7V217.8z"/>
	<path display="inline" fill="#333333" d="M214.4,224.1v-15h8.9v1.2h-5.9v5.6h3v1.2h-3v5.6h5.9v1.2H214.4z"/>
	<path display="inline" fill="#333333" d="M227.7,219c-0.1,0-0.3,0-0.4,0.1c-0.1,0-0.3,0-0.4,0v5h-3v-15h3c0.8,0,1.5,0.1,2.1,0.3
		c0.6,0.2,1.1,0.5,1.5,0.8c0.4,0.3,0.7,0.8,1,1.2c0.2,0.5,0.4,1,0.5,1.6c0.1,0.5,0,0.9,0,1.4s-0.3,0.9-0.5,1.4s-0.5,0.8-0.8,1.2
		c-0.3,0.4-0.7,0.7-1,1c0.3,0.1,0.6,0.3,0.9,0.6c0.3,0.3,0.6,0.7,0.9,1.3c0.1,0.2,0.2,0.5,0.3,0.9c0.1,0.4,0.3,0.8,0.5,1.2
		s0.5,0.7,0.8,1c0.3,0.3,0.8,0.4,1.4,0.4c-0.2,0.2-0.4,0.4-0.7,0.5c-0.3,0.1-0.7,0.2-1,0.2c-0.4,0-0.8-0.1-1.2-0.2
		c-0.4-0.1-0.8-0.4-1.2-0.7c-0.2-0.2-0.5-0.5-0.6-0.9c-0.2-0.4-0.4-0.8-0.5-1.2c-0.2-0.4-0.4-0.8-0.6-1.2
		C228.3,219.5,228,219.2,227.7,219z M226.9,217.8c0.7-1.2,1.2-2.2,1.3-3.1c0.2-0.9,0.2-1.6,0.1-2.2c-0.1-0.6-0.3-1.1-0.6-1.5
		c-0.3-0.4-0.6-0.6-0.8-0.7V217.8z"/>
</g>
<polyline fill="#00A99D" points="74,108 74,34 116,72.9 116,108 99,108 99,115 74,115 74,34 "/>
<polyline fill="#00A99D" points="159,108 159,34 117,72.9 117,108 134,108 134,115 159,115 159,34 "/>
</svg>
