<?xml version="1.0" encoding="utf-8"?>
<!-- Generator: Adobe Illustrator 18.0.0, SVG Export Plug-In . SVG Version: 6.00 Build 0)  -->
<!DOCTYPE svg PUBLIC "-//W3C//DTD SVG 1.1//EN" "http://www.w3.org/Graphics/SVG/1.1/DTD/svg11.dtd">
<svg version="1.1" id="Layer_1" xmlns="http://www.w3.org/2000/svg" xmlns:xlink="http://www.w3.org/1999/xlink" x="0px" y="0px"
	 viewBox="0 0 300 300" enable-background="new 0 0 300 300" xml:space="preserve">
<g>
	<g>
		<path fill="#22B573" d="M219.4,100.5c2.1,0.6,3.7,1.7,4.9,3.3c1.2,1.6,1.9,3.3,1.9,5.2v66.8c0,1.2-0.3,2.4-0.8,3.5
			c-0.5,1.1-1.2,2-2.1,2.8c-0.9,0.8-1.9,1.5-3.1,1.9c-1.2,0.5-2.5,0.7-3.8,0.7c-1.4,0-2.6-0.2-3.8-0.7c-1.2-0.5-2.2-1.1-3.1-1.9
			c-0.9-0.8-1.6-1.8-2.1-2.8c-0.5-1.1-0.7-2.2-0.7-3.5v-39.5l-15.4,19.1c-0.9,1.1-2.1,2-3.5,2.7c-1.4,0.6-2.9,1-4.4,1
			c-1.6,0-3.1-0.3-4.5-1c-1.4-0.6-2.5-1.5-3.4-2.7l-15.4-19.1v39.5c0,1.2-0.3,2.4-0.8,3.5c-0.5,1.1-1.2,2-2.1,2.8
			c-0.9,0.8-1.9,1.5-3.1,1.9c-1.2,0.5-2.4,0.7-3.8,0.7c-1.4,0-2.6-0.2-3.8-0.7c-1.2-0.5-2.2-1.1-3.1-1.9c-0.9-0.8-1.6-1.8-2.1-2.8
			c-0.5-1.1-0.7-2.2-0.7-3.5v-66.8c0-1.9,0.6-3.6,1.9-5.2c1.2-1.5,2.9-2.6,4.9-3.3c2-0.6,4-0.6,6,0c2,0.6,3.6,1.7,4.9,3.3l25.3,31.4
			l25.2-31.4c1.2-1.6,2.9-2.7,4.9-3.3C215.4,99.8,217.4,99.9,219.4,100.5z"/>
	</g>
	<path fill="none" stroke="#22B573" stroke-width="14" stroke-miterlimit="10" d="M252.3,146c0,15.8-4.2,30.4-11.3,42.6
		c-11.9,20.3-32.1,33.6-55.1,33.6c-19.7,0-37.4-9.8-49.6-25.5c-10.5-13.5-16.8-31.2-16.8-50.7c0-24.3-157.1,0-90.4-23.2
		c13.7-4.8,141.4-53,156.8-53c15.6,0,29.9,6.1,41.2,16.4C242.5,100.2,252.3,121.7,252.3,146z"/>
</g>
<path stroke="#000000" stroke-width="2" stroke-miterlimit="10" d="M113.1,194"/>
</svg>
